# xmcd
#
# Track frame offsets: 
#        150
#        16587
#        27636
#        39682
#        50215
#        61541
#        73388
#        90563
#        102797
#        116711
#        132366
#        148375
#        160325
#        171663
#        182417
#        193319
#        205304
#        215446
#        228187
#        240016
#        251404
#        265912
#        275656
#        288131
#        296706
#
# Disc length: 4102 seconds
#
# Revision: 3
# Processed by: cddbd v1.5.2PL0 Copyright (c) Steve Scherf et al.
# Submitted via: ExactAudioCopy v1.0b3
#
DISCID=80100419
DTITLE=Various Artist - Country and western
DYEAR=1999
DGENRE=Country
TTITLE0=Bobby Bare - Me and Bobby McGee
TTITLE1=Dave Dudley - Get me back to Tennessee
TTITLE2=Ferlin Husky - I could sing all night
TTITLE3=Freddy Quinn - The yellow rose of Texas
TTITLE4=Barbara Perry - I'll hold you closer than love
TTITLE5=Billy Grammer - Papa and mama
TTITLE6=Bobby Bare - Sylvia's mother
TTITLE7=Ferlin Husky - I only roll 'em
TTITLE8=George Kent - Doogie ray
TTITLE9=Karen O'Donnell - I know what it's all about now, mama
TTITLE10=Rick Pilgreen - If I had the chance
TTITLE11=Roy Baham - Linda's red dress
TTITLE12=Rick Key - The great barnyard disaster
TTITLE13=George Kent - In a bad mood tonight
TTITLE14=Freddy Quinn - Tom Dooley
TTITLE15=Dave Dudley - South bound and down
TTITLE16=Bobby Bare - Help me make it through the night
TTITLE17=Dave Dudley - Me and ole C.B.
TTITLE18=Ferlin Husky - Money greases the wheels
TTITLE19=Buddy Meredith - A new girl in town
TTITLE20=Bobby Lord - Freedom
TTITLE21=Norville Dollar - What makes me feel so blue?
TTITLE22=Rick Johnson - Warm sweet love
TTITLE23=Freddy Quinn - O, Susanna
TTITLE24=Ferlin Husky - The bridge I have never crossed
EXTD=
EXTT0=
EXTT1=
EXTT2=
EXTT3=
EXTT4=
EXTT5=
EXTT6=
EXTT7=
EXTT8=
EXTT9=
EXTT10=
EXTT11=
EXTT12=
EXTT13=
EXTT14=
EXTT15=
EXTT16=
EXTT17=
EXTT18=
EXTT19=
EXTT20=
EXTT21=
EXTT22=
EXTT23=
EXTT24=
PLAYORDER=
